<svg id="ff33629a-b55c-49bd-969e-d94f200c1d21" data-name="aad18829-149e-4603-8a94-26abc36cc882" xmlns="http://www.w3.org/2000/svg" viewBox="0 0 400 101.8"><defs><style>.ed61b9be-be6e-48b7-943b-2c5bb4700c38{fill:#fff;}.a4aa41b2-b3c6-4635-b76a-ab7f903a91e2{fill:#fdc600;}.ae42a265-9cd8-48a2-85b9-1869161fc9f8{fill:#1d1d1b;}</style></defs><rect class="ed61b9be-be6e-48b7-943b-2c5bb4700c38" width="400" height="101.8"/><rect class="a4aa41b2-b3c6-4635-b76a-ab7f903a91e2" x="3.88" y="3.81" width="294.18" height="94.11"/><rect class="ae42a265-9cd8-48a2-85b9-1869161fc9f8" x="298.06" y="3.81" width="98.06" height="94.11"/><path class="ae42a265-9cd8-48a2-85b9-1869161fc9f8" d="M180.19,206.32c-.65-7.62-7.62-10.56-17.74-12.43-4.38-.85-5.52-1.58-5.52-2.67h0c0-1,1-1.79,3.08-1.79a22.07,22.07,0,0,1,12.5,4.23l6.68-9.62a28.7,28.7,0,0,0-18.81-5.88c-11.49,0-17.65,6.32-17.65,14.35h0c0,9.05,8.18,11.78,17.51,13.72,4.51.93,5.81,1.58,5.81,2.79h0c0,1.15-1.08,1.81-3.6,1.81a23.41,23.41,0,0,1-14.35-5l-7.18,9A31.93,31.93,0,0,0,162.57,222c10.56,0,17.59-4.88,18.32-12.92a9.52,9.52,0,0,0,0-1.51h0v-1.34" transform="translate(0 -149.1)"/><rect class="ae42a265-9cd8-48a2-85b9-1869161fc9f8" x="75.16" y="29.58" width="13.93" height="42.93"/><path class="ae42a265-9cd8-48a2-85b9-1869161fc9f8" d="M112.28,205.81l3.81-10.33,3.79,10.33Zm-1.83-27.13L91.73,221.75h15l2.15-5.67h14.36l2.23,5.67h15.08l-18.72-43.07Z" transform="translate(0 -149.1)"/><polygon class="ae42a265-9cd8-48a2-85b9-1869161fc9f8" points="222.47 59.73 208.75 57.58 203.45 56.71 198.13 57.58 184.78 59.65 179.11 72.51 193.97 72.51 196.12 66.83 210.69 66.83 212.93 72.51 228.07 72.51 222.47 59.73"/><polygon class="ae42a265-9cd8-48a2-85b9-1869161fc9f8" points="203.45 42.72 207.69 54.49 221.1 56.57 209.26 29.58 197.85 29.58 186.14 56.57 199.21 54.49 203.45 42.72"/><polygon class="a4aa41b2-b3c6-4635-b76a-ab7f903a91e2" points="372.08 74.16 324.48 74.16 348.25 54.41 372.08 74.16"/><path class="ed61b9be-be6e-48b7-943b-2c5bb4700c38" d="M332.17,206.32V204.6H322v5.52a17.71,17.71,0,0,1,0,4.6,1.4,1.4,0,0,1-1.49,1,1.51,1.51,0,0,1-1.58-1,16.07,16.07,0,0,1-.35-4.15V190a16.53,16.53,0,0,1,.35-4.38c0-.72.79-1,1.66-1a1.34,1.34,0,0,1,1.43.86,14.57,14.57,0,0,1,0,4.17v7.66h10.28v-4.15a34.5,34.5,0,0,0-.94-9.11,9.32,9.32,0,0,0-4-5,13.64,13.64,0,0,0-7.18-1.94,12.93,12.93,0,0,0-5.94,1.22,10.25,10.25,0,0,0-4.11,3.53,10.5,10.5,0,0,0-1.71,4.58,57.34,57.34,0,0,0,0,7.18v12.64a36.27,36.27,0,0,0,.92,9.69,8.8,8.8,0,0,0,4,5.1,13.79,13.79,0,0,0,7.18,1.79h1.08l10.63-8.76A56.7,56.7,0,0,0,332.17,206.32Z" transform="translate(0 -149.1)"/><path class="ed61b9be-be6e-48b7-943b-2c5bb4700c38" d="M348.37,200.64l13.92,11.56-6.17-35.1h-16l-5.35,34.76,12.13-10.06Zm0-15.57c.64,6,1.33,9.76,1.87,13.85h-4.15C346.09,195.7,347.23,191.74,348.37,185.07Z" transform="translate(0 -149.1)"/><polygon class="ed61b9be-be6e-48b7-943b-2c5bb4700c38" points="377.53 37.27 384.2 37.27 384.2 28.07 359.73 28.07 359.73 37.27 366.33 37.27 366.33 66.48 375.51 74.09 377.53 74.09 377.53 37.27"/><path class="ed61b9be-be6e-48b7-943b-2c5bb4700c38" d="M388.3,177.6a2.79,2.79,0,0,1,2.08.93,3.1,3.1,0,0,1,.87,2.16,3.2,3.2,0,0,1-.87,2.15,2.26,2.26,0,0,1-3.17.41,2,2,0,0,1-.56-.63,3.2,3.2,0,0,1,0-3.79,3.71,3.71,0,0,1,1.08-1.08A3,3,0,0,1,388.3,177.6Zm0,.65a1.83,1.83,0,0,0-1.65.71,2.45,2.45,0,0,0-.64,1.73,2.49,2.49,0,0,0,.64,1.72,2.22,2.22,0,0,0,3.08,0h0a2.5,2.5,0,0,0,.65-1.72,2.35,2.35,0,0,0,0-1.34,2.14,2.14,0,0,0-.94-.87,1.54,1.54,0,0,0-1-.49Zm-1.33,4V179h1.49a1.08,1.08,0,0,1,.79,0,.88.88,0,0,1,0,.64.73.73,0,0,1,0,.58,1,1,0,0,1-.57.36h0v1.22h-.79v-.55a5.74,5.74,0,0,0-.43-.66.79.79,0,0,0-.43,0h0v1.58Zm.57-1.79h1.07a.79.79,0,0,0,0-.43h0a.53.53,0,0,0-.49,0h-.58Z" transform="translate(0 -149.1)"/></svg>